<svg width="31" height="31" viewBox="0 0 31 31" fill="none" xmlns="http://www.w3.org/2000/svg">
<path d="M6.41273 0.860107C3.07025 0.860107 0.360107 3.57025 0.360107 6.91273V24.8088C0.360107 28.1512 3.07025 30.8601 6.41273 30.8601H24.3088C27.6512 30.8601 30.3601 28.1512 30.3601 24.8088V6.9051V6.89748C30.2876 3.56282 27.5939 0.860107 24.3088 0.860107H6.41273ZM6.41273 2.16164H24.3088C26.8805 2.16164 29.0009 4.27432 29.0586 6.92671V24.8088C29.0586 27.4533 26.9533 29.5586 24.3088 29.5586H20.5338V18.4308H23.6885L24.5553 13.2246H20.5338V11.9231C20.5338 11.5652 20.5695 11.5364 20.6978 11.4541C20.8261 11.3718 21.2037 11.2723 21.8353 11.2723H24.4384V6.89366L23.9872 6.74877C23.9872 6.74877 21.9199 6.06623 19.8831 6.06623C17.9934 6.06623 16.6018 6.68669 15.77 7.77957C14.9383 8.87244 14.6769 10.32 14.6769 11.9231V13.2246H12.7246V18.4308H14.6769V29.5586H6.41273C3.76817 29.5586 1.66164 27.4533 1.66164 24.8088V6.91273C1.66164 4.26817 3.76817 2.16164 6.41273 2.16164ZM19.8831 7.36776C21.2944 7.36776 22.5997 7.71763 23.1369 7.87108V9.97081H21.8353C21.1004 9.97081 20.5011 10.034 19.9949 10.3585C19.4887 10.6829 19.2323 11.3049 19.2323 11.9231V14.5262H23.0199L22.5852 17.1292H19.2323V29.5586H15.9785V17.1292H14.0262V14.5262H15.9785V11.9231C15.9785 10.4677 16.2385 9.31314 16.8059 8.5676C17.3733 7.82207 18.2586 7.36776 19.8831 7.36776Z" fill="white"/>
</svg>
