<svg width="31" height="31" viewBox="0 0 31 31" fill="none" xmlns="http://www.w3.org/2000/svg">
<path d="M9.26354 0.399902C4.3766 0.399902 0.399902 4.3766 0.399902 9.26354V21.5363C0.399902 26.4232 4.3766 30.3999 9.26354 30.3999H21.5363C26.4232 30.3999 30.3999 26.4232 30.3999 21.5363V9.26354C30.3999 4.3766 26.4232 0.399902 21.5363 0.399902H9.26354ZM9.26354 1.76354H21.5363C25.6861 1.76354 29.0363 5.11366 29.0363 9.26354V21.5363C29.0363 25.6861 25.6861 29.0363 21.5363 29.0363H9.26354C5.11366 29.0363 1.76354 25.6861 1.76354 21.5363V9.26354C1.76354 5.11366 5.11366 1.76354 9.26354 1.76354ZM23.5817 5.85445C23.2201 5.85445 22.8732 5.99812 22.6175 6.25385C22.3618 6.50958 22.2181 6.85643 22.2181 7.21808C22.2181 7.57974 22.3618 7.92659 22.6175 8.18232C22.8732 8.43805 23.2201 8.58172 23.5817 8.58172C23.9434 8.58172 24.2902 8.43805 24.546 8.18232C24.8017 7.92659 24.9454 7.57974 24.9454 7.21808C24.9454 6.85643 24.8017 6.50958 24.546 6.25385C24.2902 5.99812 23.9434 5.85445 23.5817 5.85445ZM15.3999 7.8999C11.2658 7.8999 7.8999 11.2658 7.8999 15.3999C7.8999 19.534 11.2658 22.8999 15.3999 22.8999C19.534 22.8999 22.8999 19.534 22.8999 15.3999C22.8999 11.2658 19.534 7.8999 15.3999 7.8999ZM15.3999 9.26354C18.797 9.26354 21.5363 12.0028 21.5363 15.3999C21.5363 18.797 18.797 21.5363 15.3999 21.5363C12.0028 21.5363 9.26354 18.797 9.26354 15.3999C9.26354 12.0028 12.0028 9.26354 15.3999 9.26354Z" fill="white"/>
</svg>
