<svg width="20" height="20" viewBox="0 0 20 20" fill="none" xmlns="http://www.w3.org/2000/svg">
<path d="M17.1113 14.9201V17.9201C17.1122 18.1986 17.0663 18.4743 16.9766 18.7294C16.8868 18.9846 16.7552 19.2137 16.5901 19.402C16.425 19.5902 16.2301 19.7336 16.0178 19.8228C15.8056 19.912 15.5807 19.9452 15.3576 19.9201C12.8821 19.5857 10.5042 18.5342 8.41494 16.8501C6.47119 15.3148 4.82323 13.2663 3.58809 10.8501C2.2285 8.2413 1.38241 5.27109 1.11835 2.1801C1.09824 1.90356 1.12468 1.62486 1.19598 1.36172C1.26728 1.09859 1.38187 0.856786 1.53246 0.651718C1.68306 0.44665 1.86635 0.282806 2.07068 0.170619C2.275 0.0584315 2.49588 0.000358432 2.71925 9.69523e-05H5.13268C5.5231 -0.00467949 5.90159 0.167176 6.19761 0.48363C6.49364 0.800084 6.68699 1.23954 6.74163 1.7201C6.8435 2.68016 7.03241 3.62282 7.30476 4.5301C7.413 4.88802 7.43643 5.27701 7.37226 5.65098C7.3081 6.02494 7.15904 6.36821 6.94275 6.6401L5.92107 7.9101C7.06628 10.4136 8.73388 12.4865 10.7479 13.9101L11.7696 12.6401C11.9883 12.3712 12.2645 12.1859 12.5653 12.1062C12.8662 12.0264 13.1791 12.0556 13.467 12.1901C14.1969 12.5286 14.9553 12.7635 15.7276 12.8901C16.1184 12.9586 16.4753 13.2033 16.7304 13.5776C16.9856 13.9519 17.1211 14.4297 17.1113 14.9201Z" stroke="white" stroke-width="2" stroke-linecap="round" stroke-linejoin="round"/>
</svg>
