<svg width="31" height="31" viewBox="0 0 31 31" fill="none" xmlns="http://www.w3.org/2000/svg">
<path d="M3.77138 0.199951C1.80744 0.199951 0.199951 1.80744 0.199951 3.77138V26.6285C0.199951 28.5925 1.80744 30.2 3.77138 30.2H26.6285C28.5925 30.2 30.2 28.5925 30.2 26.6285V3.77138C30.2 1.80744 28.5925 0.199951 26.6285 0.199951H3.77138ZM3.77138 1.62852H26.6285C27.8203 1.62852 28.7714 2.57961 28.7714 3.77138V26.6285C28.7714 27.8203 27.8203 28.7714 26.6285 28.7714H3.77138C2.57961 28.7714 1.62852 27.8203 1.62852 26.6285V3.77138C1.62852 2.57961 2.57961 1.62852 3.77138 1.62852ZM15.2 4.48567C8.98356 4.48567 3.77138 8.54162 3.77138 13.7337C3.77138 18.366 7.90285 22.1286 13.297 22.852H13.2984C13.4404 22.8824 13.6038 22.9307 13.7002 22.9762C13.7199 22.9855 13.7178 22.9863 13.7281 22.9929C13.7262 23.0516 13.7445 23.3216 13.717 23.5286C13.7102 23.5687 13.5932 24.2611 13.5691 24.3978V24.3992C13.5358 24.5898 13.4099 24.9738 13.7351 25.4636C13.8977 25.7085 14.2345 25.9067 14.5498 25.9338C14.8652 25.9609 15.1546 25.8829 15.4776 25.7468C16.2169 25.4405 17.6932 24.5681 19.3978 23.4017C21.1009 22.2363 22.9401 20.8224 24.1439 19.4647C25.781 17.7028 26.6285 15.8025 26.6285 13.7337C26.6285 8.54226 21.4164 4.48567 15.2 4.48567ZM15.2 5.91424C20.7992 5.91424 25.2 9.51517 25.2 13.7337C25.2 15.4285 24.5614 16.92 23.0948 18.4965L23.0878 18.5035L23.0822 18.5105C22.038 19.6904 20.2457 21.0895 18.5914 22.2214C16.98 23.3241 15.4757 24.1711 15.0214 24.3713C15.068 24.097 15.1288 23.7407 15.1288 23.7407L15.1316 23.7281L15.133 23.7156C15.1727 23.4167 15.2797 22.9635 15.0521 22.4028V22.4014V22.4C14.8825 21.9872 14.5668 21.8061 14.3085 21.6843C14.0502 21.5626 13.8019 21.4995 13.5956 21.4555L13.5677 21.4486L13.5384 21.4458C8.66384 20.8128 5.19995 17.522 5.19995 13.7337C5.19995 9.51438 9.60063 5.91424 15.2 5.91424ZM14.4801 10.9128C14.1202 10.9195 13.7714 11.1941 13.7714 11.6285V15.9142C13.7714 16.3085 14.0914 16.6285 14.4857 16.6285C14.88 16.6285 15.2 16.3085 15.2 15.9142V13.8579L16.7611 16.3286C17.1653 16.8943 18.0571 16.6092 18.0571 15.9142V11.6285C18.0571 11.2342 17.7371 10.9142 17.3428 10.9142C16.9485 10.9142 16.6285 11.2342 16.6285 11.6285V13.7714L15.0674 11.2142C14.9158 11.002 14.696 10.9088 14.4801 10.9128ZM8.05709 10.9142C7.66281 10.9142 7.34281 11.2342 7.34281 11.6285V15.9142C7.34281 16.3085 7.66281 16.6285 8.05709 16.6285H10.2C10.5942 16.6285 10.9142 16.3085 10.9142 15.9142C10.9142 15.52 10.5942 15.2 10.2 15.2H8.77138V11.6285C8.77138 11.2342 8.45138 10.9142 8.05709 10.9142ZM12.3428 10.9142C11.9485 10.9142 11.6285 11.2342 11.6285 11.6285V15.9142C11.6285 16.3085 11.9485 16.6285 12.3428 16.6285C12.7371 16.6285 13.0571 16.3085 13.0571 15.9142V11.6285C13.0571 11.2342 12.7371 10.9142 12.3428 10.9142ZM19.4857 10.9142C19.0914 10.9142 18.7714 11.2342 18.7714 11.6285V15.9142C18.7714 16.3085 19.0914 16.6285 19.4857 16.6285H21.6285C22.0228 16.6285 22.3428 16.3085 22.3428 15.9142C22.3428 15.52 22.0228 15.2 21.6285 15.2H20.2V14.4857H21.6285C22.0235 14.4857 22.3428 14.1657 22.3428 13.7714C22.3428 13.3771 22.0235 13.0571 21.6285 13.0571H20.2V12.3428H21.6285C22.0228 12.3428 22.3428 12.0228 22.3428 11.6285C22.3428 11.2342 22.0228 10.9142 21.6285 10.9142H19.4857Z" fill="white"/>
</svg>
