<svg width="25" height="22" viewBox="0 0 25 22" fill="none" xmlns="http://www.w3.org/2000/svg">
<path d="M2.66491 12.7439L2.66543 12.7443L11.4886 20.9816C11.4886 20.9816 11.4887 20.9816 11.4887 20.9816C11.762 21.2368 12.1234 21.3794 12.5 21.3794C12.8766 21.3794 13.238 21.2368 13.5113 20.9816C13.5113 20.9816 13.5114 20.9816 13.5114 20.9816L22.3346 12.7443L22.3351 12.7439C23.7174 11.457 24.5 9.65131 24.5 7.76314V7.47994C24.5 4.31128 22.2109 1.60971 19.0877 1.08837L2.66491 12.7439ZM2.66491 12.7439C1.28258 11.457 0.5 9.65131 0.5 7.76314V7.47994C0.5 4.31128 2.7891 1.60971 5.91228 1.08837L2.66491 12.7439ZM12.5 3.83646L12.1464 3.4829L11.5605 2.89697C10.0829 1.41938 7.97964 0.743846 5.91239 1.08835L12.5 3.83646ZM12.5 3.83646L12.8536 3.4829M12.5 3.83646L12.8536 3.4829M12.8536 3.4829L13.4395 2.89697C14.9171 1.41938 17.0204 0.743846 19.0876 1.08835L12.8536 3.4829Z" fill="#DADADA" fill-opacity="0.5" stroke="white"/>
</svg>
